<svg width="118" height="16" viewBox="0 0 118 16" fill="none" xmlns="http://www.w3.org/2000/svg">
<path d="M9.74 2C9.99333 2 10.3333 2.11333 10.76 2.34C11.2 2.56667 11.58 2.83333 11.9 3.14C12.2333 3.44667 12.4 3.71333 12.4 3.94C12.4 4.06 12.2733 4.59333 12.02 5.54C11.5533 7.22 11.2067 8.68667 10.98 9.94C10.8467 10.7267 10.7067 11.76 10.56 13.04C10.4267 14.1333 10.3067 14.9 10.2 15.34C10.1067 15.78 9.95333 16 9.74 16C9.35333 16 8.9 15.84 8.38 15.52C7.87333 15.1867 7.43333 14.78 7.06 14.3C6.86 14.0333 6.58 13.5133 6.22 12.74C5.86 11.9667 5.50667 11.1 5.16 10.14C4.82667 9.16667 4.57333 8.26 4.4 7.42L4.26 9.94C4.12667 10.7267 3.98667 11.76 3.84 13.04C3.70667 14.1333 3.58667 14.9 3.48 15.34C3.38667 15.78 3.23333 16 3.02 16C2.71333 16 2.34667 15.8933 1.92 15.68C1.50667 15.4533 1.14 15.1867 0.82 14.88C0.513333 14.5733 0.36 14.32 0.36 14.12C0.346667 13.9067 0.406667 13.46 0.54 12.78C0.686667 12.0867 0.78 11.64 0.82 11.44C0.873333 11.1733 0.973333 10.6867 1.12 9.98C1.26667 9.26 1.38667 8.59333 1.48 7.98L1.64 7.04C1.89333 5.54667 2.12667 4.33333 2.34 3.4C2.56667 2.46667 2.79333 2 3.02 2C3.24667 2 3.55333 2.1 3.94 2.3C4.34 2.48667 4.7 2.72 5.02 3C5.35333 3.28 5.56667 3.54667 5.66 3.8C6.28667 5.48 7.05333 7.74667 7.96 10.6L8.2 7.98L8.36 7.04C8.61333 5.54667 8.84667 4.33333 9.06 3.4C9.28667 2.46667 9.51333 2 9.74 2ZM16.8028 4.14C16.5495 4.14 16.2428 4.04 15.8828 3.84C15.5361 3.62667 15.2361 3.38 14.9828 3.1C14.7295 2.80667 14.6028 2.54667 14.6028 2.32C14.6028 1.96 14.6961 1.6 14.8828 1.24C15.0695 0.879999 15.3028 0.619999 15.5828 0.46C15.7161 0.393332 15.9295 0.359999 16.2228 0.359999C16.7028 0.359999 17.1828 0.466666 17.6628 0.679999C18.1561 0.893332 18.4561 1.16 18.5628 1.48C18.5895 1.54667 18.6028 1.64667 18.6028 1.78C18.6028 2.08667 18.5095 2.42667 18.3228 2.8C18.1361 3.17333 17.9028 3.49333 17.6228 3.76C17.3428 4.01333 17.0695 4.14 16.8028 4.14ZM15.4428 16C15.0961 16 14.7028 15.8867 14.2628 15.66C13.8361 15.42 13.4628 15.1467 13.1428 14.84C12.8361 14.52 12.6828 14.2533 12.6828 14.04C12.6828 13.8 12.7695 13.4467 12.9428 12.98C13.1161 12.5133 13.3761 11.8733 13.7228 11.06C13.9895 10.4333 14.1895 9.94667 14.3228 9.6C14.4561 9.24 14.5228 8.98667 14.5228 8.84C14.5228 8.73333 14.4561 8.62 14.3228 8.5C14.2028 8.36667 14.0161 8.20667 13.7628 8.02C13.4695 7.79333 13.2495 7.61333 13.1028 7.48C12.9695 7.34667 12.9028 7.20667 12.9028 7.06C12.9028 6.78 13.0295 6.45333 13.2828 6.08C13.5495 5.70667 13.8561 5.38667 14.2028 5.12C14.5628 4.85333 14.8695 4.72 15.1228 4.72C15.4295 4.72 15.7628 4.85333 16.1228 5.12C16.4961 5.38667 16.8095 5.70667 17.0628 6.08C17.3295 6.44 17.4628 6.73333 17.4628 6.96C17.4628 7.54667 17.3095 8.38667 17.0028 9.48C16.7095 10.56 16.3295 11.7267 15.8628 12.98C16.1828 12.8333 16.4628 12.68 16.7028 12.52C16.9428 12.36 17.2761 12.1133 17.7028 11.78C18.3028 11.98 18.7428 12.2667 19.0228 12.64C19.3028 13 19.4428 13.3933 19.4428 13.82C19.4428 14.1667 19.2161 14.5067 18.7628 14.84C18.3228 15.1733 17.7828 15.4533 17.1428 15.68C16.5028 15.8933 15.9361 16 15.4428 16ZM24.7781 8.14C24.3381 10.1533 24.0515 11.7933 23.9181 13.06C24.7715 12.6467 25.4581 12.22 25.9781 11.78C26.5648 11.98 26.9981 12.26 27.2781 12.62C27.5715 12.9667 27.7181 13.3667 27.7181 13.82C27.7181 14.14 27.4915 14.4733 27.0381 14.82C26.5848 15.1533 26.0448 15.4333 25.4181 15.66C24.7915 15.8867 24.2581 16 23.8181 16C23.4315 16 22.9981 15.8867 22.5181 15.66C22.0515 15.42 21.6515 15.1467 21.3181 14.84C20.9848 14.52 20.8181 14.2467 20.8181 14.02C20.8181 13.8333 20.8848 13.4333 21.0181 12.82C21.1648 12.1933 21.2915 11.66 21.3981 11.22C21.5181 10.7667 21.6048 10.4333 21.6581 10.22L22.1381 8.3L20.9181 8.38C20.6915 8.27333 20.5181 8.10667 20.3981 7.88C20.2781 7.65333 20.2181 7.39333 20.2181 7.1C20.2181 6.56667 20.4115 6.11333 20.7981 5.74C21.2781 5.76667 21.8648 5.79333 22.5581 5.82C22.5581 4.96667 22.6515 4.02667 22.8381 3C23.0248 1.96 23.2315 1.44 23.4581 1.44C23.7381 1.44 24.0915 1.56 24.5181 1.8C24.9448 2.04 25.3181 2.32 25.6381 2.64C25.9581 2.96 26.1181 3.24 26.1181 3.48C26.1181 3.78667 26.0581 4.1 25.9381 4.42C25.8315 4.72667 25.6515 5.15333 25.3981 5.7C25.6248 5.67333 26.1981 5.58 27.1181 5.42L27.5781 5.34C27.8181 5.47333 27.9981 5.66667 28.1181 5.92C28.2515 6.17333 28.3181 6.44667 28.3181 6.74C28.3181 6.98 28.2715 7.21333 28.1781 7.44C28.0848 7.66667 27.9448 7.86 27.7581 8.02L24.7781 8.14ZM33.47 4.7C34.4167 4.80667 35.2767 5.09333 36.05 5.56C36.8367 6.01333 37.45 6.56 37.89 7.2C38.33 7.84 38.55 8.48 38.55 9.12C38.55 10.08 38.3033 11.1 37.81 12.18C37.3167 13.26 36.63 14.1667 35.75 14.9C34.87 15.6333 33.89 16 32.81 16C32.2767 16 31.71 15.8067 31.11 15.42C30.51 15.02 30.0033 14.54 29.59 13.98C29.19 13.4067 28.99 12.9 28.99 12.46C28.99 11.6467 29.09 10.8133 29.29 9.96C29.49 9.09333 29.7967 8.25333 30.21 7.44C30.5967 7.22667 30.9833 7.12 31.37 7.12C31.5433 7.12 31.7033 7.14 31.85 7.18C31.7967 7.02 31.77 6.83333 31.77 6.62C31.77 6.19333 31.9167 5.80667 32.21 5.46C32.5167 5.11333 32.9367 4.86 33.47 4.7ZM32.09 13.72C33.1967 13.3467 34.0567 12.7067 34.67 11.8C35.2833 10.8933 35.69 9.81333 35.89 8.56C35.29 8.13333 34.4767 7.92 33.45 7.92C33.1967 7.92 33.0033 7.92667 32.87 7.94C33.0167 8.20667 33.09 8.50667 33.09 8.84C32.7433 9.38667 32.4767 9.99333 32.29 10.66C32.1033 11.3133 32.01 11.9733 32.01 12.64C32.01 13.04 32.0367 13.4 32.09 13.72ZM42.7978 13.36C44.0511 13.3067 45.2111 12.66 46.2778 11.42C46.9311 11.54 47.4511 11.7867 47.8378 12.16C48.2378 12.5333 48.4378 13.0067 48.4378 13.58C48.4378 13.9933 48.1978 14.3867 47.7178 14.76C47.2511 15.1333 46.6645 15.4333 45.9578 15.66C45.2511 15.8867 44.5711 16 43.9178 16C43.2778 16 42.6111 15.7933 41.9178 15.38C41.2245 14.9533 40.6511 14.4333 40.1978 13.82C39.7445 13.2067 39.5178 12.6267 39.5178 12.08C39.5178 11.0267 39.7578 9.92667 40.2378 8.78C40.7311 7.62 41.4111 6.65333 42.2778 5.88C43.1445 5.10667 44.1178 4.72 45.1978 4.72C45.8645 4.72 46.4978 4.84 47.0978 5.08C47.6978 5.32 48.1778 5.64 48.5378 6.04C48.8978 6.44 49.0778 6.85333 49.0778 7.28C49.0778 7.69333 48.8978 8.06667 48.5378 8.4C48.1778 8.72 47.7045 8.88 47.1178 8.88C46.9311 8.88 46.7378 8.86 46.5378 8.82C46.2045 8.00667 45.8378 7.43333 45.4378 7.1C44.5578 7.67333 43.8911 8.47333 43.4378 9.5C42.9845 10.5267 42.7578 11.5733 42.7578 12.64C42.7578 12.8 42.7711 13.04 42.7978 13.36ZM53.255 11.8C53.215 12.84 53.115 13.8 52.955 14.68C52.795 15.56 52.575 16 52.295 16C51.9617 16 51.575 15.8867 51.135 15.66C50.695 15.4333 50.315 15.1667 49.995 14.86C49.6883 14.54 49.535 14.2667 49.535 14.04C49.535 13.88 49.5883 13.6067 49.695 13.22C49.8017 12.82 49.9283 12.38 50.075 11.9C50.595 10.1933 51.0017 8.66667 51.295 7.32C51.455 6.57333 51.595 5.8 51.715 5C51.9017 3.93333 52.0617 3.11333 52.195 2.54C52.3283 1.96667 52.495 1.48667 52.695 1.1C52.9083 0.699999 53.1683 0.499999 53.475 0.499999C53.7017 0.499999 54.035 0.639999 54.475 0.92C54.9283 1.18667 55.3283 1.5 55.675 1.86C56.0217 2.20667 56.195 2.49333 56.195 2.72C56.195 2.92 56.1217 3.14667 55.975 3.4C55.8417 3.64 55.615 3.98667 55.295 4.44C55.2283 4.53333 55.1017 4.72 54.915 5C54.7417 5.28 54.615 5.51333 54.535 5.7C54.375 6.08667 54.195 6.58 53.995 7.18C53.8083 7.78 53.6483 8.36667 53.515 8.94L53.875 9.14C54.7417 7.96667 55.495 7.02667 56.135 6.32C56.7883 5.61333 57.295 5.26 57.655 5.26C57.9083 5.26 58.215 5.38667 58.575 5.64C58.935 5.89333 59.2483 6.18667 59.515 6.52C59.7817 6.84 59.915 7.08667 59.915 7.26C59.9017 7.5 59.8217 7.84667 59.675 8.3C59.5417 8.74 59.3283 9.36 59.035 10.16C58.6617 11.12 58.3283 12.06 58.035 12.98C58.4483 12.82 58.795 12.66 59.075 12.5C59.355 12.34 59.6817 12.12 60.055 11.84C60.615 12.08 61.0217 12.38 61.275 12.74C61.5417 13.1 61.6617 13.54 61.635 14.06C61.635 14.38 61.3883 14.6867 60.895 14.98C60.415 15.2733 59.855 15.52 59.215 15.72C58.5883 15.9067 58.0883 16 57.715 16C57.4083 16 57.055 15.88 56.655 15.64C56.255 15.4 55.9083 15.1267 55.615 14.82C55.3217 14.5 55.1817 14.2533 55.195 14.08C55.195 13.9733 55.2617 13.72 55.395 13.32C55.5283 12.9067 55.615 12.6267 55.655 12.48C55.9083 11.68 56.095 11.0467 56.215 10.58C56.3483 10.1 56.415 9.74667 56.415 9.52C56.415 9.36 56.3817 9.28 56.315 9.28C56.0217 9.28 55.5817 9.53333 54.995 10.04C54.4083 10.5467 53.8283 11.1333 53.255 11.8ZM66.8242 9.14C67.7976 7.84667 68.5709 6.88 69.1442 6.24C69.7176 5.58667 70.2242 5.26 70.6642 5.26C70.9709 5.26 71.2842 5.40667 71.6042 5.7C71.9376 5.99333 72.2109 6.34667 72.4242 6.76C72.6376 7.16 72.7442 7.5 72.7442 7.78C72.7442 8.54 72.4442 9.3 71.8442 10.06C71.2576 10.8067 70.5109 11.48 69.6042 12.08C69.8709 12.3333 70.0976 12.5267 70.2842 12.66C70.4709 12.7933 70.6709 12.9 70.8842 12.98C71.2976 12.8467 71.8176 12.6067 72.4442 12.26C72.8442 12.5 73.1509 12.78 73.3642 13.1C73.5776 13.42 73.6842 13.74 73.6842 14.06C73.6842 14.62 73.4309 15.0867 72.9242 15.46C72.4176 15.82 71.7842 16 71.0242 16C70.3976 16 69.8176 15.82 69.2842 15.46C68.7642 15.0867 68.3309 14.5933 67.9842 13.98C67.6509 13.3533 67.4242 12.68 67.3042 11.96L67.6842 11.34C68.4176 11.0467 68.9709 10.7067 69.3442 10.32C69.7309 9.93333 69.9242 9.58667 69.9242 9.28C69.9242 9.14667 69.8842 9.04667 69.8042 8.98C69.7376 8.9 69.6442 8.86 69.5242 8.86C69.2309 8.86 68.8709 9.06 68.4442 9.46C68.0176 9.84667 67.4242 10.4533 66.6642 11.28C66.6509 11.2933 66.4976 11.4667 66.2042 11.8C66.1642 12.84 66.0642 13.8 65.9042 14.68C65.7442 15.56 65.5242 16 65.2442 16C64.9109 16 64.5242 15.8867 64.0842 15.66C63.6442 15.4333 63.2642 15.1667 62.9442 14.86C62.6376 14.54 62.4842 14.2667 62.4842 14.04C62.4842 13.88 62.5376 13.6067 62.6442 13.22C62.7509 12.82 62.8776 12.38 63.0242 11.9C63.5442 10.1933 63.9509 8.66667 64.2442 7.32C64.4042 6.57333 64.5442 5.8 64.6642 5C64.8509 3.93333 65.0109 3.11333 65.1442 2.54C65.2776 1.96667 65.4442 1.48667 65.6442 1.1C65.8576 0.699999 66.1176 0.499999 66.4242 0.499999C66.6509 0.499999 66.9842 0.639999 67.4242 0.92C67.8776 1.18667 68.2776 1.5 68.6242 1.86C68.9709 2.20667 69.1442 2.49333 69.1442 2.72C69.1442 2.92 69.0709 3.14667 68.9242 3.4C68.7909 3.64 68.5642 3.98667 68.2442 4.44C68.1776 4.53333 68.0509 4.72 67.8642 5C67.6909 5.28 67.5642 5.51333 67.4842 5.7C67.3242 6.08667 67.1442 6.58 66.9442 7.18C66.7576 7.78 66.5976 8.36667 66.4642 8.94L66.8242 9.14ZM83.9155 13.06C84.7288 12.66 85.4155 12.2333 85.9755 11.78C86.5621 11.98 86.9955 12.26 87.2755 12.62C87.5688 12.9667 87.7155 13.3667 87.7155 13.82C87.7155 14.14 87.4888 14.4733 87.0355 14.82C86.5821 15.1533 86.0421 15.4333 85.4155 15.66C84.7888 15.8867 84.2555 16 83.8155 16C83.5088 16 83.1555 15.8867 82.7555 15.66C82.3688 15.4333 82.0288 15.1667 81.7355 14.86C81.4555 14.5533 81.3155 14.3133 81.3155 14.14C81.3155 14.0067 81.3688 13.8267 81.4755 13.6C81.5955 13.3733 81.7221 13.14 81.8555 12.9C81.9888 12.66 82.0755 12.5 82.1155 12.42L81.6155 12.14C80.9088 13.3 80.2288 14.2333 79.5755 14.94C78.9355 15.6467 78.3021 16 77.6755 16C77.2488 16 76.7955 15.8133 76.3155 15.44C75.8488 15.0667 75.4488 14.6133 75.1155 14.08C74.7955 13.5467 74.6355 13.0733 74.6355 12.66C74.6355 11.4733 74.8821 10.26 75.3755 9.02C75.8688 7.78 76.5555 6.75333 77.4355 5.94C78.3288 5.12667 79.3355 4.72 80.4555 4.72C80.8555 4.72 81.2621 4.9 81.6755 5.26C82.0888 5.62 82.3555 5.98667 82.4755 6.36C82.5421 6.06667 82.6355 5.81333 82.7555 5.6C82.8888 5.37333 83.0288 5.26 83.1755 5.26C83.5221 5.26 83.9021 5.38667 84.3155 5.64C84.7421 5.88 85.1021 6.16667 85.3955 6.5C85.6888 6.82 85.8355 7.07333 85.8355 7.26C85.8221 7.51333 85.7155 7.93333 85.5155 8.52C85.3288 9.10667 85.0221 10 84.5955 11.2C84.3421 11.8533 84.1155 12.4733 83.9155 13.06ZM77.7755 13.22C78.8555 12.5533 79.7955 11.7333 80.5955 10.76C81.3955 9.77333 81.9421 8.68667 82.2355 7.5C81.8755 7.34 81.5355 7.26 81.2155 7.26C80.5888 7.26 80.0288 7.54 79.5355 8.1C79.0421 8.66 78.6488 9.39333 78.3555 10.3C78.0621 11.2067 77.8688 12.18 77.7755 13.22ZM90.3194 16C90.0927 16 89.8527 15.88 89.5994 15.64C89.3594 15.3867 89.1527 15.0867 88.9794 14.74C88.8194 14.3933 88.7394 14.0867 88.7394 13.82C88.7394 13.5933 88.8927 13.3533 89.1994 13.1C89.5194 12.8467 89.8994 12.6333 90.3394 12.46C90.7794 12.2867 91.1727 12.2 91.5194 12.2C91.746 12.2 91.9727 12.32 92.1994 12.56C92.426 12.7867 92.606 13.0667 92.7394 13.4C92.886 13.72 92.9594 13.9933 92.9594 14.22C92.9594 14.46 92.7994 14.72 92.4794 15C92.1727 15.28 91.806 15.52 91.3794 15.72C90.966 15.9067 90.6127 16 90.3194 16ZM98.228 16C97.868 16 97.4746 15.8867 97.048 15.66C96.6213 15.42 96.2546 15.1467 95.948 14.84C95.6413 14.52 95.488 14.2533 95.488 14.04C95.488 13.7867 95.5413 13.46 95.648 13.06C95.7546 12.6467 95.9146 12.1133 96.128 11.46C96.3413 10.78 96.5013 10.24 96.608 9.84C96.7146 9.42667 96.768 9.09333 96.768 8.84C96.768 8.73333 96.708 8.62 96.588 8.5C96.468 8.38 96.2813 8.22 96.028 8.02C95.7346 7.78 95.5213 7.59333 95.388 7.46C95.2546 7.32667 95.188 7.19333 95.188 7.06C95.188 6.78 95.3213 6.45333 95.588 6.08C95.8546 5.70667 96.168 5.38667 96.528 5.12C96.888 4.85333 97.1946 4.72 97.448 4.72C97.728 4.72 98.048 4.84667 98.408 5.1C98.768 5.35333 99.0813 5.64667 99.348 5.98C99.6146 6.3 99.748 6.54667 99.748 6.72C99.748 7.22667 99.648 7.89333 99.448 8.72L99.688 8.84C99.9946 8.34667 100.328 7.76 100.688 7.08C101.061 6.38667 101.288 5.96 101.368 5.8L101.748 5.08C102.668 5.05333 103.355 5.22 103.808 5.58C104.261 5.94 104.488 6.42 104.488 7.02C104.488 7.60667 104.295 8.19333 103.908 8.78C102.948 9.1 102.128 9.42 101.448 9.74C100.781 10.0467 100.108 10.4133 99.428 10.84C99.388 12.32 99.268 13.5533 99.068 14.54C98.8813 15.5133 98.6013 16 98.228 16ZM108.18 16C107.833 16 107.453 15.8733 107.04 15.62C106.64 15.3533 106.3 15.0533 106.02 14.72C105.74 14.3733 105.6 14.0933 105.6 13.88C105.6 13.6667 105.66 13.36 105.78 12.96C105.913 12.56 106.047 12.16 106.18 11.76C106.327 11.36 106.42 11.1067 106.46 11C106.633 10.5333 106.787 10.0933 106.92 9.68C107.067 9.26667 107.14 8.98667 107.14 8.84C107.14 8.73333 107.073 8.62 106.94 8.5C106.82 8.36667 106.633 8.20667 106.38 8.02C106.087 7.79333 105.867 7.61333 105.72 7.48C105.587 7.34667 105.52 7.20667 105.52 7.06C105.52 6.78 105.647 6.45333 105.9 6.08C106.167 5.70667 106.473 5.38667 106.82 5.12C107.18 4.85333 107.487 4.72 107.74 4.72C108.02 4.72 108.34 4.84667 108.7 5.1C109.073 5.35333 109.393 5.64667 109.66 5.98C109.94 6.3 110.08 6.54667 110.08 6.72C110.08 7.54667 109.94 8.54 109.66 9.7C109.38 10.86 109.02 12.0133 108.58 13.16C109.46 12.4267 110.247 11.6133 110.94 10.72C111.633 9.82667 112.12 9.02667 112.4 8.32C112.427 7.45333 112.527 6.72667 112.7 6.14C112.887 5.55333 113.1 5.26 113.34 5.26C113.687 5.26 114.067 5.38667 114.48 5.64C114.907 5.88 115.267 6.16667 115.56 6.5C115.853 6.82 116 7.07333 116 7.26C115.987 7.54 115.86 8.06667 115.62 8.84C115.38 9.6 115.047 10.58 114.62 11.78C114.367 12.5267 114.22 12.9533 114.18 13.06C114.567 12.8867 114.913 12.7067 115.22 12.52C115.54 12.32 115.873 12.0733 116.22 11.78C116.807 11.98 117.24 12.26 117.52 12.62C117.813 12.9667 117.96 13.3667 117.96 13.82C117.96 14.14 117.733 14.4733 117.28 14.82C116.827 15.1533 116.287 15.4333 115.66 15.66C115.033 15.8867 114.5 16 114.06 16C113.78 16 113.447 15.8867 113.06 15.66C112.673 15.42 112.327 15.1533 112.02 14.86C111.727 14.5533 111.58 14.3267 111.58 14.18C111.58 14.0333 111.627 13.8533 111.72 13.64C111.827 13.4267 111.94 13.2 112.06 12.96C112.193 12.7067 112.293 12.5267 112.36 12.42L111.86 12.14C111.127 13.4867 110.493 14.4667 109.96 15.08C109.44 15.6933 108.847 16 108.18 16Z" fill="#472B3C"/>
</svg>
